#!OML:ASF H:\Male1\Project 1\Capture day 1\Session 1\Male1.ASF
:FULLY-SPECIFIED
:DEGREES
880
root 11.7104 15.4435 0.841413 -922.006 92.7309 1244.36
lowerback 6.03465 0.566199 3.15803
upperback 5.23105 1.03083 0.000396694
thorax 2.06843 0.673936 -1.80876
lowerneck -11.9189 5.46505 8.98657
upperneck 24.9198 7.90716 -6.3696
head 10.5621 3.95364 -2.73528
rclavicle -1.19395e-014 -5.66536e-015
rhumerus -33.6985 -0.307318 -83.4029
rradius 28.8294
rwrist -13.4185
rhand -17.8127 -0.347853
rfingers 7.12502
rthumb 8.45109 -30.1588
lclavicle -1.19395e-014 -5.66536e-015
lhumerus -28.9953 -7.51155 86.7912
lradius 33.3952
lwrist -0.113164
lhand -18.4137 15.0659
lfingers 7.12502
lthumb 7.87107 44.8993
rfemur -2.34504 10.4443 27.4035
rtibia 23.7587
rfoot -25.6142 -25.9654
rtoes -11.9178
lfemur -11.9921 0.821704 -16.8501
ltibia 59.1692
lfoot -11.9912 8.9183
ltoes -12.3686
881
root 11.5344 15.4493 0.824606 -918.689 92.6256 1247.88
lowerback 5.88372 0.597404 2.81658
upperback 5.22263 1.05234 -0.0429843
thorax 2.13779 0.675323 -1.6606
lowerneck -12.065 5.43919 9.03162
upperneck 25.1843 7.85063 -6.28265
head 10.6816 3.94219 -2.71701
rclavicle 7.33018e-015 -7.05686e-015
rhumerus -34.3704 -1.28018 -83.0705
rradius 28.6105
rwrist -13.1325
rhand -17.3984 -0.544508
rfingers 7.12502
rthumb 8.85086 -30.3389
lclavicle 7.33018e-015 -7.05686e-015
lhumerus -28.8329 -7.82245 87.1151
lradius 33.9004
lwrist 0.455816
lhand -18.6458 15.1222
lfingers 7.12502
lthumb 7.64703 44.964
rfemur -2.94724 10.4715 27.0094
rtibia 23.8403
rfoot -25.2234 -25.8357
rtoes -11.3914
lfemur -9.5479 0.930398 -16.9383
ltibia 59.4635
lfoot -11.7121 8.05194
ltoes -13.5029
882
root 11.3564 15.4524 0.804297 -911.477 92.4302 1255.22
lowerback 5.61646 0.561465 2.25234
upperback 5.23278 0.974257 -0.111462
thorax 2.28257 0.621159 -1.40792
lowerneck -12.1126 5.47273 9.12257
upperneck 25.3062 7.87887 -6.25773
head 10.7421 3.967 -2.7185
rclavicle -1.13059e-015 -1.2921e-015
rhumerus -34.9237 -1.68921 -82.9684
rradius 28.3587
rwrist -13.3778
rhand -17.2773 -0.598558
rfingers 7.12502
rthumb 8.96778 -30.388
lclavicle -1.13059e-015 -1.2921e-015
lhumerus -28.6742 -7.92145 87.3991
lradius 34.4775
lwrist 1.00219
lhand -19.1693 14.68
lfingers 7.12502
lthumb 7.14172 44.5395
rfemur -3.63933 10.3599 26.389
rtibia 23.8972
rfoot -24.7769 -25.6374
rtoes -10.4598
lfemur -7.04146 0.834642 -17.2625
ltibia 59.2324
lfoot -11.3939 6.86369
ltoes -14.6651
883
root 11.1785 15.4496 0.778871 -912.174 92.1499 1254.65
lowerback 5.3857 0.468847 2.10138
upperback 5.21271 0.837422 -0.103161
thorax 2.38161 0.547472 -1.30734
lowerneck -12.1251 5.47459 9.15458
upperneck 25.3575 7.87935 -6.25862
head 10.7652 3.97108 -2.72394
rclavicle -7.15625e-015 -5.11871e-015
rhumerus -35.5037 -2.03356 -82.8903
rradius 28.1433
rwrist -13.6373
rhand -17.3875 -0.688749
rfingers 7.12502
rthumb 8.86144 -30.4827
lclavicle -7.15625e-015 -5.11871e-015
lhumerus -28.6349 -8.24354 87.7613
lradius 35.1535
lwrist 1.54148
lhand -19.076 14.6997
lfingers 7.12502
lthumb 7.23179 44.5561
rfemur -4.46458 10.0869 26.1134
rtibia 24.2438
rfoot -24.486 -25.4156
rtoes -9.21843
lfemur -4.49833 0.460567 -17.2834
ltibia 58.471
lfoot -10.8583 5.20192
ltoes -16.776
884
root 11.0038 15.4394 0.752473 -924.455 92.0718 1242.63
lowerback 5.27407 0.372882 2.3511
upperback 5.21402 0.712819 0.00105846
thorax 2.44274 0.491439 -1.33482
lowerneck -12.0133 5.50049 9.05884
upperneck 25.3658 7.89656 -6.05333
head 10.7348 3.99665 -2.63368
rclavicle 5.31749e-015 -1.83876e-015
rhumerus -36.0395 -2.59063 -82.7373
rradius 27.9435
rwrist -13.2866
rhand -17.3367 -0.942661
rfingers 7.12502
rthumb 8.9104 -30.7345
lclavicle 5.31749e-015 -1.83876e-015
lhumerus -28.6942 -8.65354 88.1278
lradius 35.8256
lwrist 1.9804
lhand -18.1425 15.358
lfingers 7.12502
lthumb 8.13276 45.1815
rfemur -5.18392 9.90994 26.3482
rtibia 24.702
rfoot -24.0823 -25.327
rtoes -8.48786
lfemur -1.71366 0.0155854 -16.8779
ltibia 57.1967
lfoot -10.3419 3.07794
ltoes -17.8321
885
root 10.8263 15.4309 0.726333 -896.366 91.751 1270.71
lowerback 4.91297 0.340247 1.11837
upperback 5.13334 0.622759 -0.235308
thorax 2.54309 0.408986 -0.881884
lowerneck -11.7084 5.56133 8.76028
upperneck 25.2518 7.95275 -5.60943
head 10.6049 4.05086 -2.42307
rclavicle -2.59662e-015 -5.06901e-015
rhumerus -36.5511 -3.17791 -82.5551
rradius 27.7962
rwrist -13.0501
rhand -17.1632 -1.06227
rfingers 7.12502
rthumb 9.07783 -30.8469
lclavicle -2.59662e-015 -5.06901e-015
lhumerus -28.8152 -8.99918 88.5181
lradius 36.4266
lwrist 2.1986
lhand -17.3454 16.1097
lfingers 7.12502
lthumb 8.90205 45.9019
rfemur -6.25693 9.68182 25.0061
rtibia 25.1982
rfoot -23.5903 -25.0493
rtoes -7.88569
lfemur 0.842392 -0.630533 -18.2266
ltibia 55.2383
lfoot -9.55418 1.29429
ltoes -17.0502
886
root 10.6443 15.4181 0.699734 -884.041 91.7134 1283.04
lowerback 4.61821 0.294149 0.441168
upperback 5.07468 0.537243 -0.282222
thorax 2.63833 0.343563 -0.546531
lowerneck -11.9083 5.52751 8.828
upperneck 25.4293 7.89121 -5.63427
head 10.7087 4.0235 -2.44715
rclavicle 5.45415e-015 -3.08116e-015
rhumerus -37.0683 -3.39972 -82.5706
rradius 27.7729
rwrist -13.9434
rhand -17.4181 -0.79454
rfingers 7.12502
rthumb 8.83191 -30.5897
lclavicle 5.45415e-015 -3.08116e-015
lhumerus -28.9055 -9.39405 88.9348
lradius 36.9746
lwrist 2.31995
lhand -17.5238 16.071
lfingers 7.12502
lthumb 8.72989 45.8705
rfemur -7.33594 9.66084 24.3561
rtibia 25.6971
rfoot -23.2248 -24.9258
rtoes -7.10083
lfemur 3.34938 -1.32825 -18.9963
ltibia 52.759
lfoot -8.38287 0.103048
ltoes -15.4885
887
root 10.4595 15.4028 0.67032 -886.381 91.5482 1280.67
lowerback 4.3632 0.214673 0.266491
upperback 4.97917 0.419336 -0.236316
thorax 2.67846 0.275288 -0.397761
lowerneck -11.7133 5.5162 8.76875
upperneck 25.2575 7.86455 -5.53683
head 10.5979 4.01923 -2.41062
rclavicle 1.96766e-015 -3.77691e-015
rhumerus -37.6893 -3.61593 -82.6249
rradius 27.9086
rwrist -14.8634
rhand -17.5798 -0.600227
rfingers 7.12502
rthumb 8.67584 -30.4019
lclavicle 1.96766e-015 -3.77691e-015
lhumerus -29.0345 -9.90539 89.3076
lradius 37.4747
lwrist 2.50993
lhand -18.4277 14.8987
lfingers 7.12502
lthumb 7.85751 44.7327
rfemur -8.51545 9.74346 24.2206
rtibia 26.3313
rfoot -23.0158 -24.9096
rtoes -6.12781
lfemur 5.81987 -2.17469 -19.3907
ltibia 49.6652
lfoot -7.04702 -0.338324
ltoes -15.3626
888
root 10.2661 15.3808 0.635786 -890.069 91.2456 1276.87
lowerback 4.25222 0.100326 0.227569
upperback 4.80487 0.257424 -0.220528
thorax 2.55793 0.188861 -0.356796
lowerneck -11.5339 5.46655 8.64115
upperneck 25.1186 7.77407 -5.34176
head 10.4901 3.99034 -2.33648
rclavicle -1.10525e-015 -6.08623e-015
rhumerus -38.4676 -4.19725 -82.5284
rradius 28.2999
rwrist -15.1534
rhand -17.3058 -0.553012
rfingers 7.12502
rthumb 8.94028 -30.3436
lclavicle -1.10525e-015 -6.08623e-015
lhumerus -29.2367 -10.5049 89.6635
lradius 37.9051
lwrist 2.65252
lhand -18.8841 14.2947
lfingers 7.12502
lthumb 7.41698 44.1447
rfemur -9.75067 9.76723 24.0865
rtibia 26.869
rfoot -22.9758 -24.866
rtoes -4.1087
lfemur 8.20855 -3.29757 -19.9207
ltibia 45.9322
lfoot -6.39703 0.0914864
ltoes -15.368
889
root 10.0584 15.3514 0.597711 -889.468 91.041 1277.3
lowerback 4.21304 0.0257733 0.0605205
upperback 4.66837 0.148944 -0.243228
thorax 2.4372 0.127283 -0.284699
lowerneck -11.5331 5.43177 8.55328
upperneck 24.9751 7.65573 -5.08293
head 10.4134 3.95267 -2.24589
rclavicle -1.53592e-015 1.49089e-016
rhumerus -39.0431 -4.73876 -82.4742
rradius 28.6841
rwrist -15.4146
rhand -17.0209 -0.487629
rfingers 7.12502
rthumb 9.21521 -30.2663
lclavicle -1.53592e-015 1.49089e-016
lhumerus -29.201 -11.0502 89.9872
lradius 38.1387
lwrist 2.69073
lhand -18.8217 14.5571
lfingers 7.12502
lthumb 7.47722 44.4049
rfemur -11.2155 9.90422 23.766
rtibia 27.5087
rfoot -22.9447 -24.8885
rtoes -1.89771
lfemur 10.5722 -4.47354 -20.7091
ltibia 41.5445
lfoot -8.79417 1.36498
ltoes -20.6954
890
root 9.84443 15.3226 0.557946 -878.303 91.1264 1288.16
lowerback 4.0588 0.00745053 -0.408871
upperback 4.57664 0.111496 -0.32808
thorax 2.42791 0.0943586 -0.108077
lowerneck -11.5065 5.48855 8.623
upperneck 24.7098 7.66914 -4.99494
head 10.3127 3.96864 -2.22537
rclavicle 2.3792e-015 5.96354e-016
rhumerus -39.259 -4.92283 -82.5815
rradius 28.8625
rwrist -15.7726
rhand -16.9163 -0.504583
rfingers 7.12502
rthumb 9.31608 -30.2787
lclavicle 2.3792e-015 5.96354e-016
lhumerus -28.9526 -11.4783 90.2293
lradius 38.1724
lwrist 2.77012
lhand -18.8708 14.4302
lfingers 7.12502
lthumb 7.4299 44.2798
rfemur -12.8786 10.1864 23.1236
rtibia 28.0948
rfoot -22.4135 -25.1226
rtoes -1.58569
lfemur 12.3644 -5.43656 -21.8344
ltibia 36.7288
lfoot -10.7591 2.94356
ltoes -20.2155
891
root 9.62082 15.2859 0.515307 -859.439 91.3988 1306.7
lowerback 3.91489 -0.0295984 -1.12202
upperback 4.52381 0.049637 -0.495448
thorax 2.45468 0.0447761 0.120632
lowerneck -11.5441 5.52404 8.93107
upperneck 24.518 7.73197 -5.39662
head 10.286 3.97581 -2.40997
rclavicle -1.95679e-015 -3.37934e-015
rhumerus -39.293 -5.02311 -82.7449
rradius 29.0018
rwrist -16.0495
rhand -16.9573 -0.390895
rfingers 7.12502
rthumb 9.2765 -30.1668
lclavicle -1.95679e-015 -3.37934e-015
lhumerus -28.6942 -11.8279 90.4216
lradius 38.2009
lwrist 2.84792
lhand -19.0207 14.0069
lfingers 7.12502
lthumb 7.28521 43.8615
rfemur -14.4982 10.4674 22.1515
rtibia 28.4602
rfoot -21.9738 -25.4377
rtoes -2.17502
lfemur 14.1712 -6.33213 -23.2583
ltibia 31.8264
lfoot -13.0015 4.84943
ltoes -22.0627
892
root 9.38805 15.2707 0.476401 -853.417 91.6509 1312.52
lowerback 4.00409 -0.0330844 -1.64271
upperback 4.51738 0.0367682 -0.627902
thorax 2.39961 0.0267204 0.276305
lowerneck -11.3885 5.53511 9.10429
upperneck 24.0421 7.70547 -5.51463
head 10.0947 3.95988 -2.48799
rclavicle 2.90723e-015 -2.98177e-016
rhumerus -39.2549 -5.25403 -82.8821
rradius 29.094
rwrist -16.0694
rhand -16.9029 -0.198705
rfingers 7.12502
rthumb 9.32907 -29.9723
lclavicle 2.90723e-015 -2.98177e-016
lhumerus -28.4641 -12.2532 90.5831
lradius 38.2497
lwrist 2.94274
lhand -19.1501 13.783
lfingers 7.12502
lthumb 7.16022 43.6418
rfemur -15.8312 11.09 21.4337
rtibia 28.6873
rfoot -22.5123 -25.7755
rtoes -2.5505
lfemur 16.2711 -6.79521 -24.3437
ltibia 26.9708
lfoot -14.471 7.19183
ltoes -19.7445
893
root 9.14835 15.2602 0.445676 -865.784 91.7958 1300.06
lowerback 4.31901 0.082646 -1.7652
upperback 4.54618 0.185842 -0.666114
thorax 2.25117 0.101036 0.302151
lowerneck -11.1166 5.53953 9.33861
upperneck 23.4232 7.6416 -5.57319
head 9.82918 3.93837 -2.56235
rclavicle -7.33018e-016 -5.56597e-015
rhumerus -39.1923 -5.4832 -83.1074
rradius 29.1915
rwrist -16.0122
rhand -16.6943 -0.199998
rfingers 7.12502
rthumb 9.53028 -29.9645
lclavicle -7.33018e-016 -5.56597e-015
lhumerus -28.2218 -12.8933 90.6739
lradius 38.2529
lwrist 3.10872
lhand -19.2274 13.9549
lfingers 7.12502
lthumb 7.08569 43.8163
rfemur -16.8983 12.206 21.2916
rtibia 28.729
rfoot -23.7887 -26.0357
rtoes -2.82436
lfemur 17.9194 -6.78393 -24.7899
ltibia 22.3814
lfoot -15.5314 9.87404
ltoes -18.0926
894
root 8.90084 15.2527 0.403655 -849.169 92.6698 1316.36
lowerback 4.40876 0.171382 -2.92775
upperback 4.61425 0.290407 -1.08962
thorax 2.27168 0.1313 0.514877
lowerneck -11.1787 5.55675 9.48939
upperneck 22.9547 7.57035 -5.55543
head 9.67544 3.90628 -2.58875
rclavicle 1.2424e-015 -1.31198e-014
rhumerus -38.8605 -5.76766 -83.3523
rradius 29.2341
rwrist -15.8851
rhand -16.4389 -0.299371
rfingers 7.12502
rthumb 9.7767 -30.0524
lclavicle 1.2424e-015 -1.31198e-014
lhumerus -27.7335 -13.5842 90.697
lradius 38.1521
lwrist 3.16444
lhand -19.1674 14.4607
lfingers 7.12502
lthumb 7.14359 44.3201
rfemur -18.1385 12.2311 19.6784
rtibia 28.602
rfoot -24.6825 -25.6648
rtoes -5.02221
lfemur 18.8964 -6.61456 -26.5167
ltibia 18.314
lfoot -16.4297 11.9362
ltoes -15.9588
